<?xml version="1.0" standalone="no"?>
<!DOCTYPE svg PUBLIC "-//W3C//DTD SVG 20010904//EN"
 "http://www.w3.org/TR/2001/REC-SVG-20010904/DTD/svg10.dtd">
<svg version="1.0" xmlns="http://www.w3.org/2000/svg"
 width="600.000000pt" height="527.000000pt" viewBox="0 0 600.000000 527.000000"
 preserveAspectRatio="xMidYMid meet">

<g transform="translate(0.000000,527.000000) scale(0.100000,-0.100000)" fill="chartreuse" stroke="none">
<path d="M4290 5150 c-30 -5 -82 -11 -115 -15 -33 -4 -71 -9 -85 -10 -39 -6
-117 -13 -205 -19 -76 -6 -282 6 -352 20 -28 5 -33 3 -33 -13 0 -32 64 -61
220 -100 40 -11 113 -13 535 -17 316 -3 311 -3 530 -61 295 -78 428 -187 490
-400 79 -269 -125 -584 -476 -734 -134 -58 -256 -92 -396 -111 -51 -7 -97 -18
-103 -25 -11 -14 -3 -45 11 -45 14 0 139 -80 139 -89 0 -7 117 -105 146 -123
19 -12 280 79 384 134 223 118 364 245 484 438 93 150 137 369 95 477 -6 15
-15 55 -19 87 -14 92 -90 229 -189 339 -97 108 -306 216 -475 248 -28 5 -62
12 -76 15 -39 10 -449 13 -510 4z"/>
<path d="M3545 3674 c-317 -46 -604 -162 -865 -351 -75 -54 -150 -109 -167
-123 -59 -48 -249 -214 -307 -269 -186 -176 -287 -264 -426 -373 -146 -113
-297 -200 -394 -225 -56 -14 -59 -14 -79 6 l-21 20 60 28 c125 60 245 157 311
254 38 54 115 234 132 305 40 170 -17 370 -143 498 -143 145 -338 181 -513 95
-186 -90 -283 -283 -284 -559 0 -126 23 -279 56 -365 43 -113 44 -107 -22
-147 -249 -154 -477 -431 -578 -703 -42 -113 -62 -170 -75 -210 -6 -22 -27
-78 -45 -125 -55 -139 -70 -251 -40 -297 41 -62 110 -71 272 -38 188 39 328
84 683 220 334 128 517 177 670 177 47 0 89 -6 114 -16 21 -9 51 -16 66 -16
24 0 31 -6 44 -43 66 -174 12 -609 -101 -822 -69 -130 -120 -204 -229 -330
-55 -64 -109 -159 -99 -175 11 -18 31 -10 121 49 109 72 186 145 291 276 162
203 248 343 313 510 17 44 37 94 45 110 7 17 23 55 35 85 11 30 30 74 40 97
11 24 20 48 20 54 0 19 157 331 200 398 114 175 277 343 466 477 73 52 143 98
156 103 13 5 66 29 118 54 258 121 403 158 760 194 65 7 75 11 78 29 2 17 -13
29 -80 65 -127 68 -238 166 -320 282 -22 30 -22 31 -2 17 108 -77 155 -106
240 -149 55 -27 124 -57 154 -66 30 -9 62 -20 71 -25 37 -19 150 -31 297 -31
130 0 177 5 272 26 282 61 394 97 580 186 80 38 152 74 160 79 8 5 50 30 93
56 159 95 224 153 185 167 -26 8 -166 -6 -292 -29 -166 -31 -340 -32 -527 -4
-240 37 -327 72 -429 172 -131 128 -301 250 -388 279 -20 7 -46 18 -57 25 -28
17 -165 59 -255 78 -75 15 -308 28 -365 20z m-2723 -1761 c32 -30 36 -68 13
-112 -18 -36 -29 -40 -141 -55 -92 -12 -144 -6 -144 17 0 14 78 98 133 145 49
42 99 44 139 5z"/>
<path d="M725 3361 c-27 -10 -61 -23 -75 -29 -36 -14 -127 -107 -151 -154 -79
-154 -72 -387 18 -643 45 -126 49 -135 74 -135 18 0 85 43 192 125 50 39 57
59 36 112 -26 68 -50 232 -50 343 1 118 2 129 20 217 6 29 8 59 5 66 -2 7 2
30 11 51 12 29 13 41 4 52 -15 18 -23 17 -84 -5z"/>
<path d="M3805 2393 c-16 -2 -65 -13 -109 -24 -43 -10 -80 -19 -82 -19 -15 0
1 -66 28 -119 40 -76 115 -154 182 -188 186 -94 484 -99 771 -12 94 28 170 58
205 78 8 5 47 25 85 45 83 43 165 101 165 119 0 9 -53 12 -228 12 -129 1 -266
6 -317 14 -49 7 -171 23 -270 37 -99 13 -198 31 -220 40 -42 16 -158 26 -210
17z"/>
<path d="M1661 1335 c-22 -12 -25 -22 -28 -77 -6 -105 -48 -207 -134 -324 -37
-50 -273 -261 -359 -320 -58 -40 -381 -234 -448 -269 -50 -26 -65 -48 -39 -57
24 -9 184 12 280 37 141 37 246 84 442 198 134 77 230 140 261 171 16 17 54
52 82 78 29 26 52 52 52 58 0 6 11 27 25 48 33 50 65 146 65 196 0 23 -6 66
-14 96 -7 30 -16 67 -20 82 -3 15 -20 43 -37 63 -25 29 -38 35 -68 34 -20 -1
-47 -7 -60 -14z"/>
</g>
</svg>
